<svg xmlns="http://www.w3.org/2000/svg" xmlns:xlink="http://www.w3.org/1999/xlink" width="500" zoomAndPan="magnify" viewBox="0 0 375 374.999991" height="500" preserveAspectRatio="xMidYMid meet" version="1.0"><defs><g/></defs><g fill="#354343" fill-opacity="1"><g transform="translate(112.046863, 213.129146)"><g><path d="M 41.265625 -13.4375 L 60.78125 -57.78125 L 77.578125 -57.78125 L 77.578125 -54.921875 C 75.984375 -54.867188 74.695312 -54.664062 73.71875 -54.3125 C 72.738281 -53.96875 71.984375 -53.382812 71.453125 -52.5625 C 70.929688 -51.738281 70.582031 -50.597656 70.40625 -49.140625 C 70.238281 -47.691406 70.15625 -45.84375 70.15625 -43.59375 L 70.15625 -14.1875 C 70.15625 -11.675781 70.253906 -9.695312 70.453125 -8.25 C 70.648438 -6.800781 71.035156 -5.675781 71.609375 -4.875 C 72.191406 -4.070312 73.019531 -3.546875 74.09375 -3.296875 C 75.164062 -3.046875 76.578125 -2.894531 78.328125 -2.84375 L 78.328125 0 L 54.015625 0 L 54.015625 -2.84375 C 55.773438 -2.894531 57.191406 -3.054688 58.265625 -3.328125 C 59.335938 -3.609375 60.171875 -4.125 60.765625 -4.875 C 61.367188 -5.625 61.769531 -6.6875 61.96875 -8.0625 C 62.175781 -9.4375 62.28125 -11.300781 62.28125 -13.65625 L 62.28125 -48.46875 L 61.53125 -48.46875 L 39.609375 0.75 L 37.96875 0.75 L 16.4375 -48.46875 L 16.125 -48.46875 L 16.125 -14.1875 C 16.125 -11.675781 16.222656 -9.695312 16.421875 -8.25 C 16.628906 -6.800781 17.019531 -5.675781 17.59375 -4.875 C 18.164062 -4.070312 18.988281 -3.546875 20.0625 -3.296875 C 21.144531 -3.046875 22.5625 -2.894531 24.3125 -2.84375 L 24.3125 0 L 3.375 0 L 3.375 -2.84375 C 5.125 -2.894531 6.535156 -3.054688 7.609375 -3.328125 C 8.691406 -3.609375 9.53125 -4.125 10.125 -4.875 C 10.726562 -5.625 11.128906 -6.6875 11.328125 -8.0625 C 11.523438 -9.4375 11.625 -11.300781 11.625 -13.65625 L 11.625 -44.125 C 11.625 -46.21875 11.535156 -47.953125 11.359375 -49.328125 C 11.191406 -50.703125 10.84375 -51.789062 10.3125 -52.59375 C 9.789062 -53.394531 9.03125 -53.957031 8.03125 -54.28125 C 7.03125 -54.601562 5.726562 -54.816406 4.125 -54.921875 L 4.125 -57.78125 L 22.0625 -57.78125 L 40.96875 -13.4375 Z M 41.265625 -13.4375 "/></g></g></g><g fill="#354343" fill-opacity="1"><g transform="translate(208.392472, 213.129146)"><g><path d="M 51.84375 0 L 3.375 0 L 3.375 -2.84375 C 5.125 -2.894531 6.535156 -3.046875 7.609375 -3.296875 C 8.691406 -3.546875 9.53125 -3.972656 10.125 -4.578125 C 10.726562 -5.179688 11.128906 -6.03125 11.328125 -7.125 C 11.523438 -8.226562 11.625 -9.65625 11.625 -11.40625 L 11.625 -46.375 C 11.625 -48.125 11.535156 -49.535156 11.359375 -50.609375 C 11.191406 -51.679688 10.84375 -52.53125 10.3125 -53.15625 C 9.789062 -53.78125 9.03125 -54.203125 8.03125 -54.421875 C 7.03125 -54.648438 5.726562 -54.816406 4.125 -54.921875 L 4.125 -57.78125 L 26.9375 -57.78125 L 26.9375 -54.921875 C 25.332031 -54.867188 24.039062 -54.71875 23.0625 -54.46875 C 22.09375 -54.21875 21.34375 -53.765625 20.8125 -53.109375 C 20.289062 -52.460938 19.941406 -51.5625 19.765625 -50.40625 C 19.597656 -49.257812 19.515625 -47.738281 19.515625 -45.84375 L 19.515625 -13.5 C 19.515625 -11.40625 19.722656 -9.691406 20.140625 -8.359375 C 20.566406 -7.035156 21.289062 -6.007812 22.3125 -5.28125 C 23.34375 -4.5625 24.707031 -4.0625 26.40625 -3.78125 C 28.113281 -3.507812 30.265625 -3.375 32.859375 -3.375 C 35.710938 -3.375 38.113281 -3.535156 40.0625 -3.859375 C 42.019531 -4.191406 43.660156 -4.769531 44.984375 -5.59375 C 46.304688 -6.414062 47.351562 -7.5625 48.125 -9.03125 C 48.90625 -10.507812 49.570312 -12.425781 50.125 -14.78125 L 52.96875 -14.78125 Z M 51.84375 0 "/></g></g></g></svg>